<svg width="198" height="51" viewBox="0 0 198 51" fill="none" xmlns="http://www.w3.org/2000/svg">
<path d="M0.0878906 35.3691L22.9395 26.0508V20.2871L0.0878906 10.9941V17.8242L14.6621 22.623L16.1855 23.1309L14.6367 23.6387L0.0878906 28.5137V35.3691ZM54.1445 44.5098V39H30.9883V44.5098H54.1445Z" fill="#FF8811"/>
<path d="M93.7955 39H100.956V38.5684C100.6 37.8743 100.329 37.0449 100.143 36.0801C99.957 35.1152 99.8639 33.8965 99.8639 32.4238V20.6426C99.8639 19.0514 99.5677 17.6549 98.9752 16.4531C98.3828 15.2344 97.5618 14.2272 96.5123 13.4316C95.4629 12.6361 94.2187 12.0352 92.7799 11.6289C91.358 11.2227 89.8177 11.0195 88.1588 11.0195C86.3138 11.0195 84.6718 11.2565 83.233 11.7305C81.8112 12.1875 80.6093 12.8138 79.6276 13.6094C78.6289 14.4049 77.8672 15.3275 77.3424 16.377C76.8346 17.4264 76.5807 18.5352 76.5807 19.7031H83.6393C83.6393 19.2122 83.707 18.7637 83.8424 18.3574C83.9948 17.9512 84.2233 17.6042 84.528 17.3164C84.8665 16.9948 85.3066 16.7493 85.8483 16.5801C86.3899 16.3939 87.0332 16.3008 87.778 16.3008C88.6243 16.3008 89.3607 16.4108 89.987 16.6309C90.6302 16.834 91.1634 17.1302 91.5866 17.5195C91.9928 17.8919 92.2975 18.3405 92.5006 18.8652C92.7038 19.373 92.8053 19.9486 92.8053 20.5918V22.2168H88.8698C86.8385 22.2168 85.0358 22.403 83.4616 22.7754C81.9043 23.1309 80.5924 23.6556 79.526 24.3496C78.3411 25.1113 77.4524 26.0846 76.86 27.2695C76.2676 28.4375 75.9713 29.7832 75.9713 31.3066C75.9713 32.4915 76.2083 33.5918 76.6823 34.6074C77.1562 35.6061 77.8164 36.4694 78.6627 37.1973C79.5091 37.9251 80.5163 38.4922 81.6842 38.8984C82.8691 39.3047 84.164 39.5078 85.569 39.5078C86.4323 39.5078 87.2363 39.4232 87.9811 39.2539C88.7259 39.1016 89.4114 38.8815 90.0377 38.5938C90.6471 38.3229 91.2057 38.0013 91.7135 37.6289C92.2213 37.2565 92.6699 36.8587 93.0592 36.4355C93.1439 36.9264 93.2454 37.3919 93.3639 37.832C93.4824 38.2721 93.6263 38.6615 93.7955 39ZM87.067 34.0488C86.4069 34.0488 85.8229 33.9727 85.3151 33.8203C84.8242 33.651 84.4095 33.431 84.0709 33.1602C83.7324 32.8724 83.47 32.5254 83.2838 32.1191C83.1146 31.696 83.0299 31.2389 83.0299 30.748C83.0299 30.1217 83.1484 29.5462 83.3854 29.0215C83.6224 28.4798 83.9863 28.0143 84.4772 27.625C84.9681 27.2526 85.6028 26.9648 86.3815 26.7617C87.1601 26.5417 88.0996 26.4316 89.1998 26.4316H92.8053V31.1543C92.6022 31.5098 92.3229 31.8652 91.9674 32.2207C91.612 32.5592 91.1888 32.8639 90.6979 33.1348C90.207 33.4056 89.6569 33.6257 89.0475 33.7949C88.4381 33.9642 87.778 34.0488 87.067 34.0488ZM107.862 39H114.946V19.4746C115.183 19.1022 115.445 18.7637 115.733 18.459C116.021 18.1543 116.342 17.8919 116.698 17.6719C117.138 17.3672 117.637 17.1387 118.196 16.9863C118.771 16.834 119.398 16.7578 120.075 16.7578C120.887 16.7578 121.615 16.8424 122.258 17.0117C122.902 17.1641 123.452 17.4434 123.909 17.8496C124.366 18.2559 124.713 18.8145 124.95 19.5254C125.204 20.2194 125.331 21.1081 125.331 22.1914V39H132.389V22.0898C132.389 20.0924 132.152 18.3997 131.678 17.0117C131.221 15.6068 130.578 14.4557 129.749 13.5586C128.902 12.6784 127.904 12.0352 126.753 11.6289C125.602 11.2227 124.332 11.0195 122.944 11.0195C121.861 11.0195 120.837 11.1719 119.872 11.4766C118.907 11.7812 118.018 12.2214 117.206 12.7969C116.732 13.1354 116.283 13.5163 115.86 13.9395C115.437 14.3626 115.048 14.8281 114.692 15.3359L114.26 11.5273H107.862V39ZM138.356 25.0605V25.5938C138.356 27.5911 138.602 29.4447 139.092 31.1543C139.583 32.847 140.294 34.3112 141.225 35.5469C142.139 36.7826 143.256 37.7559 144.577 38.4668C145.914 39.1608 147.421 39.5078 149.096 39.5078C150.637 39.5078 151.991 39.2116 153.159 38.6191C154.327 38.0267 155.342 37.1973 156.206 36.1309L156.561 39H162.934V0H155.85V13.9902C155.004 13.0423 154.031 12.3145 152.93 11.8066C151.847 11.2819 150.586 11.0195 149.147 11.0195C147.437 11.0195 145.914 11.3581 144.577 12.0352C143.256 12.7122 142.131 13.6686 141.2 14.9043C140.269 16.14 139.558 17.6211 139.067 19.3477C138.593 21.0742 138.356 22.9785 138.356 25.0605ZM145.415 25.5938V25.0605C145.415 23.9095 145.516 22.8346 145.719 21.8359C145.923 20.8203 146.244 19.9316 146.684 19.1699C147.124 18.4251 147.691 17.8411 148.385 17.418C149.096 16.9779 149.951 16.7578 150.95 16.7578C152.152 16.7578 153.15 17.0202 153.946 17.5449C154.742 18.0527 155.376 18.7721 155.85 19.7031V30.8242C155.376 31.7383 154.733 32.4577 153.921 32.9824C153.125 33.5072 152.118 33.7695 150.899 33.7695C149.9 33.7695 149.054 33.5579 148.36 33.1348C147.666 32.7116 147.099 32.1276 146.659 31.3828C146.219 30.6549 145.897 29.8001 145.694 28.8184C145.508 27.8197 145.415 26.7448 145.415 25.5938ZM174.665 50.0957C176.087 50.0957 177.314 49.8587 178.346 49.3848C179.396 48.9108 180.284 48.3268 181.012 47.6328C181.74 46.9388 182.341 46.1855 182.815 45.373C183.306 44.5605 183.704 43.8073 184.008 43.1133L197.948 11.5273H190.153L183.881 27.6758L182.84 30.418L182.079 27.625L175.782 11.5273H168.063L179.692 37.832L178.067 40.8535C177.864 41.2259 177.686 41.5137 177.534 41.7168C177.398 41.9199 177.178 42.2246 176.874 42.6309C176.569 43.0371 176.197 43.4095 175.756 43.748C175.333 44.1035 174.842 44.2812 174.284 44.2812C174.013 44.2812 173.649 44.2643 173.192 44.2305C172.752 44.2135 172.388 44.2051 172.1 44.2051L171.237 49.5879C171.846 49.7572 172.396 49.8841 172.887 49.9688C173.395 50.0534 173.988 50.0957 174.665 50.0957Z" fill="#FFF8F0"/>
</svg>
