<svg width="90" height="104" viewBox="0 0 90 104" fill="none" xmlns="http://www.w3.org/2000/svg">
<g clip-path="url(#clip0_40_639)">
<path d="M7.53605 92.9742L0 0.972687L90 1.15757L82.0314 92.9742L45.3397 103.587L7.53605 92.9742Z" fill="#1B73BA"/>
<path d="M45.3397 94.7019V9.73477L82.4023 9.85803L75.7931 85.8782L45.3397 94.7019Z" fill="#1C88C7"/>
<path d="M73.1983 20.5951H16.184L17.7286 31.7013H44.7837L18.1611 43.117L19.7049 53.8533H58.9297L57.5086 68.8471L44.2277 71.4391L32.183 68.3541L31.2561 59.8385H20.1992L21.6813 77.5483L45.4014 84.1505L68.1336 76.9313L71.0369 42.3144H47.0069L73.1976 31.4547L73.1983 20.5951Z" fill="white"/>
</g>
<defs>
<clipPath id="clip0_40_639">
<rect width="90" height="102.96" fill="white" transform="translate(0 0.799988)"/>
</clipPath>
</defs>
</svg>
