<svg width="120" height="49" viewBox="0 0 120 49" fill="none" xmlns="http://www.w3.org/2000/svg">
<g clip-path="url(#clip0_40_710)">
<path d="M0.8612 30.6139C0.290537 28.5357 0 26.3771 0 24.203C0 14.2782 6.2332 5.20337 15.5117 1.62476L16.7282 4.77321C8.74152 7.8543 3.37729 15.6619 3.37729 24.203C3.37729 26.0765 3.6263 27.9319 4.11656 29.7199L0.8612 30.6139Z" fill="#69D3A7"/>
<path d="M42.8075 14.6151C39.1968 7.68328 32.0895 3.3765 24.2636 3.3765C21.4907 3.3765 18.7956 3.91031 16.2588 4.95979L14.9644 1.84242C17.9137 0.621915 21.0419 0 24.2636 0C33.3554 0 41.6091 5.00126 45.8036 13.0551L42.8075 14.6151Z" fill="url(#paint0_linear_40_710)"/>
<path d="M17.0188 19.2095C18.9771 19.2095 20.5724 20.2538 21.3922 22.0755L21.457 22.2181L24.746 21.1012L24.676 20.9328C23.4024 17.8309 20.4687 15.903 17.0188 15.903C14.5934 15.903 12.6221 16.6804 10.9931 18.2766C9.37446 19.8626 8.55481 21.8579 8.55481 24.2082C8.55481 26.5378 9.37446 28.5227 10.9931 30.1086C12.6221 31.7049 14.5934 32.4823 17.0188 32.4823C20.4687 32.4823 23.4024 30.5543 24.676 27.4551L24.746 27.2867L21.4518 26.1672L21.3895 26.3149C20.6554 28.1055 19.0213 29.1758 17.0188 29.1758C15.6544 29.1758 14.5027 28.699 13.5895 27.7609C12.6662 26.8098 12.1993 25.6153 12.1993 24.2108C12.1993 22.7959 12.6558 21.6246 13.5895 20.6295C14.5 19.6864 15.6544 19.2095 17.0188 19.2095Z" fill="#1B1E2E"/>
<path d="M57.5488 18.2793C56.0313 16.7037 54.1377 15.903 51.9173 15.903C49.7125 15.903 47.8967 16.6882 46.5168 18.2352V16.2088H42.9631V38.2894H46.5168V30.1501C47.8967 31.6972 49.7099 32.4823 51.9173 32.4823C54.1377 32.4823 56.0338 31.6815 57.5513 30.1035C59.0454 28.5176 59.8002 26.5352 59.8002 24.2082C59.7977 21.8579 59.0428 19.8652 57.5488 18.2793ZM54.7629 27.7557C53.8524 28.6964 52.6981 29.1706 51.3363 29.1706C49.9538 29.1706 48.8331 28.7068 47.9071 27.7557C46.9837 26.8047 46.5168 25.6101 46.5168 24.2056C46.5168 22.7597 46.9707 21.5883 47.9071 20.6244C48.8306 19.6708 49.9512 19.2095 51.3363 19.2095C52.7007 19.2095 53.8524 19.6864 54.7629 20.6244C55.6785 21.5677 56.1221 22.7389 56.1221 24.2056C56.1221 25.6516 55.676 26.8125 54.7629 27.7557Z" fill="#1B1E2E"/>
<path d="M65.5846 18.1108V16.2088H62.0309V32.1739H65.5846V23.1665C65.5846 21.7231 66.1657 20.6192 67.3121 19.8858C68.4509 19.1577 69.8179 19.0229 71.4911 19.479L71.7063 19.5386V16.1233L71.5741 16.0921C69.3276 15.5557 67.0735 16.328 65.5846 18.1108Z" fill="#1B1E2E"/>
<path d="M80.9251 15.903C78.5828 15.903 76.5958 16.7011 75.0188 18.2766C73.4208 19.8729 72.6116 21.8683 72.6116 24.2082C72.6116 26.5378 73.4312 28.5227 75.0498 30.1086C76.6789 31.7049 78.6502 32.4823 81.0755 32.4823C84.362 32.4823 87.1869 30.8135 88.6342 28.0174L88.7172 27.8568L85.7109 26.5249L85.6382 26.6674C84.7667 28.3517 83.0936 29.3572 81.1689 29.3572C78.6684 29.3572 76.754 27.8309 76.2353 25.4494H89.127L89.1427 25.2965C89.4228 22.7208 88.7588 20.4871 87.1739 18.655C85.5967 16.8281 83.4931 15.903 80.9251 15.903ZM76.3416 22.599C76.9719 20.4197 78.7514 19.0256 80.9251 19.0256C83.1585 19.0256 84.9379 20.4197 85.5137 22.599H76.3416Z" fill="#1B1E2E"/>
<path d="M98.6366 22.6844C96.6989 22.3217 95.0259 22.0056 95.0259 20.658C95.0259 19.5878 96.1646 18.8415 97.7935 18.8415C99.5911 18.8415 100.577 19.6137 100.808 21.2022L100.834 21.3811L104.387 20.6374L104.362 20.4766C103.884 17.6547 101.368 15.9004 97.7962 15.9004C96.0037 15.9004 94.4863 16.3643 93.2879 17.279C92.0636 18.1886 91.4436 19.3753 91.4436 20.8109C91.4436 22.8891 92.7613 24.4491 94.974 24.983C95.5472 25.1177 96.1542 25.2265 96.7405 25.3354C98.9426 25.7371 101.023 26.1179 101.023 27.6002C101.023 28.743 99.6949 29.5385 97.7962 29.5385C95.8637 29.5385 94.7976 28.7663 94.5356 27.1752L94.5071 26.999L90.956 27.7428L90.9845 27.9059C91.5007 30.7694 94.0453 32.4797 97.7935 32.4797C99.6975 32.4797 101.329 32.0055 102.636 31.0726C103.944 30.15 104.605 28.9606 104.605 27.538C104.605 23.8065 101.298 23.1846 98.6366 22.6844Z" fill="#1B1E2E"/>
<path d="M114.031 22.6844C112.094 22.3217 110.421 22.0056 110.421 20.658C110.421 19.5878 111.56 18.8415 113.188 18.8415C114.986 18.8415 115.971 19.6137 116.202 21.2022L116.229 21.3811L119.782 20.6374L119.756 20.4766C119.279 17.6547 116.763 15.9004 113.191 15.9004C111.398 15.9004 109.882 16.3643 108.683 17.279C107.458 18.1886 106.838 19.3753 106.838 20.8109C106.838 22.8891 108.156 24.4491 110.369 24.983C110.943 25.1177 111.55 25.2265 112.135 25.3354C114.338 25.7371 116.418 26.1179 116.418 27.6002C116.418 28.743 115.09 29.5385 113.191 29.5385C111.258 29.5385 110.192 28.7663 109.93 27.1752L109.902 26.999L106.351 27.7428L106.379 27.9059C106.896 30.7694 109.44 32.4797 113.188 32.4797C115.092 32.4797 116.724 32.0055 118.032 31.0726C119.338 30.15 120 28.9606 120 27.538C120 23.8065 116.692 23.1846 114.031 22.6844Z" fill="#1B1E2E"/>
<path d="M37.6196 16.2088L32.9324 28.0692L28.2141 16.2088H24.3544L30.9714 32.3968L26.2635 43.8141L29.6382 44.4853L41.2667 16.2088H37.6196Z" fill="#1B1E2E"/>
<path d="M26.8673 42.3422L26.045 44.3324C25.8816 44.7263 25.5081 44.9931 25.0879 45.0113C24.8104 45.0217 24.5302 45.0294 24.2475 45.0294C14.5695 45.0243 6.00699 38.2013 3.88516 28.8L0.590862 29.5437C1.78148 34.817 4.76969 39.6032 9.00556 43.0238C13.2908 46.4831 18.6886 48.393 24.2112 48.4034C24.2189 48.4034 24.2604 48.4034 24.2604 48.4034C24.5847 48.4034 24.9063 48.3956 25.2279 48.3827C26.9607 48.3101 28.5093 47.2243 29.1707 45.6151L30.2445 43.0134L26.8673 42.3422Z" fill="url(#paint1_linear_40_710)"/>
</g>
<defs>
<linearGradient id="paint0_linear_40_710" x1="21.7389" y1="-1.56244" x2="40.1572" y2="18.1233" gradientUnits="userSpaceOnUse">
<stop offset="0.0939" stop-color="#58D09E"/>
<stop offset="0.9883" stop-color="#58D09E" stop-opacity="0"/>
</linearGradient>
<linearGradient id="paint1_linear_40_710" x1="-0.25857" y1="35.2149" x2="34.9291" y2="44.5807" gradientUnits="userSpaceOnUse">
<stop offset="0.0774" stop-color="#58D09E"/>
<stop offset="0.7617" stop-color="#1B1E2E"/>
</linearGradient>
<clipPath id="clip0_40_710">
<rect width="120" height="48.4034" fill="white"/>
</clipPath>
</defs>
</svg>
