<svg width="90" height="90" viewBox="0 0 90 90" fill="none" xmlns="http://www.w3.org/2000/svg">
<g clip-path="url(#clip0_98_320)">
<path d="M0 0H90V90H0V0Z" fill="#F0DB4F"/>
<path d="M82.634 68.5352C81.9753 64.4287 79.2975 60.981 71.3669 57.7642C68.6122 56.4981 65.5409 55.5913 64.6255 53.5038C64.3004 52.289 64.2576 51.6045 64.4629 50.8688C65.0532 48.4819 67.9021 47.7376 70.1606 48.422C71.615 48.9097 72.9924 50.0305 73.8222 51.8184C77.7063 49.3033 77.6977 49.3203 80.4097 47.5923C79.4173 46.0524 78.8869 45.3422 78.2367 44.6835C75.9011 42.0742 72.7186 40.7311 67.6283 40.8337C66.7471 40.9449 65.8575 41.0646 64.9762 41.1759C62.4354 41.8176 60.0143 43.1522 58.5941 44.9402C54.3336 49.7738 55.5485 58.2348 60.7329 61.7168C65.8403 65.5495 73.3431 66.4221 74.3013 70.0067C75.2338 74.3955 71.0761 75.8156 66.9439 75.3109C63.8983 74.6778 62.2045 73.1293 60.3736 70.3147C57.0029 72.2653 57.0029 72.2653 53.5381 74.2586C54.3594 76.0552 55.2234 76.8679 56.6008 78.425C63.1199 85.0381 79.4344 84.713 82.3603 74.7035C82.48 74.3612 83.2672 72.0684 82.634 68.5352V68.5352ZM48.9268 41.3641H40.5085C40.5085 48.6359 40.4744 55.8565 40.4744 63.1283C40.4744 67.7566 40.714 72 39.9611 73.3004C38.7292 75.8583 35.5381 75.5418 34.0837 75.0455C32.6037 74.3183 31.8508 73.2832 30.9782 71.8203C30.7387 71.4011 30.559 71.076 30.499 71.0504C28.2149 72.4449 25.9392 73.8478 23.6549 75.2424C24.7929 77.5779 26.4696 79.6055 28.6169 80.9229C31.8251 82.8478 36.1369 83.4381 40.6455 82.4029C43.5799 81.5474 46.1122 79.7766 47.4382 77.0817C49.3546 73.5485 48.9439 69.2709 48.9268 64.5399C48.9696 56.8232 48.9268 49.1065 48.9268 41.3641Z" fill="#323330"/>
</g>
<defs>
<clipPath id="clip0_98_320">
<rect width="90" height="90" fill="white"/>
</clipPath>
</defs>
</svg>
