<svg width="132" height="27" viewBox="0 0 132 27" fill="none" xmlns="http://www.w3.org/2000/svg">
<g clip-path="url(#clip0_40_727)">
<path d="M87.7495 0.0111694H110.742V4.28626H101.621V26.7769H97.0602V4.28626H87.7495V0.0111694Z" fill="black"/>
<path d="M49.9362 0.0111694V4.28626H31.5065V11.1636H46.3276V15.4386H31.5065V22.5018H49.9362V26.7769H26.9461V4.28626H26.9442V0.0111694H49.9362Z" fill="black"/>
<path d="M61.4168 0.0223389H55.4487L76.8253 26.7881H82.8109L72.1212 13.4144L82.7938 0.0427594L76.8253 0.0520508L69.1331 9.67604L61.4168 0.0223389Z" fill="black"/>
<path d="M67.5411 19.1412L64.5524 15.3977L55.4316 26.8085H61.4169L67.5411 19.1412Z" fill="black"/>
<path fill-rule="evenodd" clip-rule="evenodd" d="M27.1059 26.7769L5.70049 0H0V26.7657H4.5604V5.72116L21.3769 26.7769H27.1059Z" fill="black"/>
<path d="M111.767 26.6134C111.433 26.6134 111.149 26.4969 110.911 26.2638C110.673 26.0307 110.555 25.7485 110.558 25.4141C110.555 25.089 110.673 24.8098 110.911 24.5767C111.149 24.3436 111.433 24.2271 111.767 24.2271C112.088 24.2271 112.369 24.3436 112.607 24.5767C112.848 24.8098 112.969 25.089 112.972 25.4141C112.969 25.635 112.913 25.8374 112.802 26.0184C112.687 26.2024 112.542 26.3466 112.36 26.4509C112.181 26.5583 111.983 26.6134 111.767 26.6134Z" fill="black"/>
<path d="M119.55 15.3378H121.571V23.181C121.568 23.9019 121.414 24.5184 121.111 25.0368C120.805 25.5552 120.382 25.9508 119.838 26.23C119.297 26.506 118.664 26.6472 117.944 26.6472C117.285 26.6472 116.695 26.5275 116.17 26.2944C115.645 26.0613 115.228 25.7116 114.922 25.2515C114.613 24.7914 114.461 24.2178 114.461 23.5307H116.485C116.488 23.8313 116.556 24.092 116.686 24.3098C116.816 24.5276 116.995 24.6932 117.224 24.8098C117.455 24.9263 117.721 24.9846 118.021 24.9846C118.345 24.9846 118.623 24.9171 118.849 24.7791C119.074 24.6441 119.248 24.4417 119.368 24.1718C119.485 23.9049 119.547 23.5736 119.55 23.181V15.3378Z" fill="black"/>
<path d="M129.886 18.4052C129.837 17.9297 129.621 17.5586 129.244 17.2948C128.864 17.0279 128.372 16.896 127.77 16.896C127.347 16.896 126.982 16.9605 126.679 17.0862C126.376 17.215 126.141 17.3868 125.981 17.6046C125.82 17.8224 125.74 18.0708 125.733 18.35C125.733 18.5831 125.789 18.7855 125.897 18.9542C126.005 19.126 126.15 19.2702 126.339 19.3867C126.524 19.5064 126.731 19.6045 126.957 19.6842C127.186 19.764 127.415 19.8315 127.643 19.8867L128.697 20.1474C129.12 20.2456 129.531 20.3775 129.924 20.5462C130.316 20.7118 130.671 20.9235 130.983 21.1781C131.295 21.4327 131.543 21.7394 131.725 22.0983C131.907 22.4571 132 22.8774 132 23.362C132 24.0154 131.833 24.589 131.496 25.0859C131.159 25.5797 130.674 25.9662 130.038 26.2453C129.404 26.5214 128.638 26.6625 127.736 26.6625C126.864 26.6625 126.104 26.5276 125.465 26.2576C124.822 25.9908 124.321 25.5981 123.96 25.0828C123.598 24.5675 123.404 23.9387 123.376 23.1994H125.378C125.406 23.5859 125.53 23.908 125.74 24.1687C125.953 24.4264 126.231 24.6166 126.571 24.7454C126.914 24.8712 127.297 24.9356 127.72 24.9356C128.162 24.9356 128.552 24.8681 128.888 24.7362C129.222 24.6043 129.485 24.4203 129.673 24.181C129.865 23.9448 129.961 23.6657 129.964 23.3467C129.961 23.0553 129.874 22.8129 129.707 22.6228C129.537 22.4326 129.302 22.2731 129.003 22.1443C128.7 22.0155 128.348 21.8989 127.946 21.7977L126.667 21.4725C125.743 21.2363 125.01 20.8775 124.476 20.3959C123.938 19.9143 123.672 19.2763 123.672 18.4757C123.672 17.8193 123.852 17.2427 124.213 16.7488C124.571 16.255 125.063 15.8715 125.684 15.5985C126.308 15.3225 127.013 15.1875 127.797 15.1875C128.595 15.1875 129.293 15.3225 129.896 15.5985C130.498 15.8715 130.971 16.2519 131.314 16.7365C131.657 17.2212 131.836 17.7764 131.846 18.4052H129.886Z" fill="black"/>
</g>
<defs>
<clipPath id="clip0_40_727">
<rect width="132" height="27" fill="white"/>
</clipPath>
</defs>
</svg>
