<svg width="90" height="91" viewBox="0 0 90 91" fill="none" xmlns="http://www.w3.org/2000/svg">
<path d="M71.1834 29.6575C72.6484 22.5613 72.9628 17.1186 72.0158 13.1665C71.4526 10.816 70.423 8.89846 68.8573 7.51501C67.2044 6.05445 65.1145 5.33775 62.7664 5.33775C58.8926 5.33775 54.8203 7.10237 50.4683 10.4547C48.6933 11.822 46.8509 13.4701 44.9376 15.4C44.7854 15.2041 44.6132 15.0194 44.4214 14.8487C39.0122 10.0334 34.458 7.04155 30.5629 5.88799C28.2468 5.20209 26.0723 5.13675 24.0921 5.80244C22.0019 6.50512 20.3364 7.95766 19.1613 9.99221C17.2221 13.35 16.7107 17.762 17.4337 23.2099C17.7284 25.4304 18.2322 27.8493 18.944 30.4701C18.6755 30.5025 18.4062 30.562 18.1397 30.6503C11.2766 32.9222 6.41672 35.3654 3.47446 38.1576C1.72389 39.8188 0.58075 41.6683 0.167511 43.7155C-0.268661 45.8764 0.156639 48.0438 1.33032 50.0769C3.26595 53.4298 6.82501 56.0742 11.8953 58.1687C13.9313 59.0097 16.2348 59.7714 18.8085 60.4565C18.691 60.7213 18.5999 61.0026 18.539 61.2977C17.074 68.3939 16.7596 73.8365 17.7066 77.7887C18.2698 80.1392 19.2994 82.0567 20.8651 83.4402C22.518 84.9007 24.6079 85.6174 26.956 85.6174C30.8298 85.6174 34.9021 83.8528 39.254 80.5005C41.048 79.1186 42.9106 77.4499 44.8458 75.4935C45.045 75.8046 45.2894 76.0938 45.5786 76.3512C50.9878 81.1665 55.542 84.1583 59.4371 85.3119C61.7532 85.9978 63.9277 86.0631 65.9079 85.3975C67.9981 84.6948 69.6636 83.2422 70.8387 81.2077C72.7779 77.8499 73.2893 73.4379 72.5663 67.99C72.261 65.6892 71.7311 63.1755 70.978 60.4447C71.2724 60.4149 71.568 60.3528 71.8603 60.256C78.7234 57.984 83.5833 55.5408 86.5255 52.7487C88.2761 51.0874 89.4193 49.2379 89.8325 47.1907C90.2687 45.0298 89.8434 42.8624 88.6697 40.8294C86.734 37.4765 83.175 34.8321 78.1046 32.7375C76.0081 31.8714 73.6277 31.0895 70.9608 30.3887C71.0558 30.1564 71.1308 29.9121 71.1834 29.6575Z" fill="#002C4B"/>
<path fill-rule="evenodd" clip-rule="evenodd" d="M38.0827 30.9157H51.9197C52.7681 30.9157 53.5517 31.3695 53.9739 32.1054L60.905 44.1843C61.3238 44.9143 61.3238 45.8118 60.905 46.5418L53.9739 58.6208C53.5517 59.3566 52.7681 59.8104 51.9197 59.8104H38.0827C37.2343 59.8104 36.4507 59.3566 36.0285 58.6208L29.0974 46.5418C28.6785 45.8118 28.6785 44.9143 29.0974 44.1843L36.0285 32.1054C36.4507 31.3695 37.2343 30.9157 38.0827 30.9157ZM50.2048 33.8888C51.0536 33.8888 51.8376 34.3431 52.2596 35.0796L57.4783 44.1854C57.8963 44.9149 57.8963 45.8113 57.4783 46.5407L52.2596 55.6466C51.8376 56.3831 51.0536 56.8374 50.2048 56.8374H39.7976C38.9488 56.8374 38.1648 56.3831 37.7428 55.6466L32.5241 46.5407C32.1061 45.8113 32.1061 44.9149 32.5241 44.1854L37.7428 35.0796C38.1648 34.3431 38.9488 33.8888 39.7976 33.8888H50.2048ZM48.354 37.1406H41.6484C40.8004 37.1406 40.0171 37.594 39.5947 38.3293L36.2317 44.1833C35.8121 44.9138 35.8121 45.8123 36.2317 46.5429L39.5947 52.3969C40.0171 53.1322 40.8004 53.5855 41.6484 53.5855H48.354C49.202 53.5855 49.9852 53.1322 50.4077 52.3969L53.7707 46.5429C54.1903 45.8123 54.1903 44.9138 53.7707 44.1833L50.4077 38.3293C49.9852 37.594 49.202 37.1406 48.354 37.1406ZM46.5722 40.2531C47.4196 40.2531 48.2024 40.7058 48.625 41.4402L50.2027 44.1818C50.6236 44.9131 50.6236 45.8131 50.2027 46.5444L48.625 49.286C48.2024 50.0204 47.4196 50.4731 46.5722 50.4731H43.4301C42.5828 50.4731 41.8 50.0204 41.3774 49.286L39.7997 46.5444C39.3788 45.8131 39.3788 44.9131 39.7997 44.1818L41.3774 41.4402C41.8 40.7058 42.5828 40.2531 43.4301 40.2531H46.5722ZM45.0018 43.3191C44.2702 43.3191 43.5952 43.7086 43.2298 44.3411C42.8645 44.9734 42.8645 45.7527 43.2298 46.3851C43.5952 47.0175 44.2702 47.4071 45.0006 47.4071C45.7322 47.4071 46.4072 47.0175 46.7726 46.3851C47.1379 45.7527 47.1379 44.9734 46.7726 44.3411C46.4072 43.7086 45.7322 43.3191 45.0018 43.3191ZM28.4211 45.3635H32.1005H28.4211Z" fill="#FFD94C"/>
<path fill-rule="evenodd" clip-rule="evenodd" d="M25.9864 51.9273C26.6076 51.5723 27.396 51.7932 27.7475 52.4207L27.9723 52.8206C29.7741 56.013 31.6511 59.0432 33.6035 61.9113C35.909 65.2983 38.5019 68.7272 41.3822 72.1979C41.8343 72.7426 41.7718 73.5526 41.2416 74.02L40.952 74.2743C31.4273 82.5963 25.2369 84.2585 22.3807 79.2611C19.5869 74.3728 20.5979 65.4866 25.4138 52.6024C25.5206 52.3166 25.7232 52.0777 25.9864 51.9273ZM66.5688 61.7249C67.2566 61.6035 67.9147 62.0568 68.0493 62.7446L68.1219 63.1198C70.4759 75.4399 68.8184 81.6 63.1496 81.6C57.6046 81.6 50.5462 76.3463 41.9744 65.8391C41.7843 65.606 41.6816 65.3135 41.6842 65.0123C41.6904 64.3013 42.2696 63.7301 42.9778 63.7363L43.4296 63.7395C47.0395 63.7591 50.5489 63.6339 53.9577 63.3638C57.9832 63.0448 62.1869 62.4985 66.5688 61.7249ZM69.8252 35.5635C70.0731 34.896 70.8198 34.5458 71.5048 34.7758L71.8781 34.902C84.1186 39.0716 88.7695 43.6539 85.8308 48.649C82.9563 53.5348 74.5979 57.0917 60.7555 59.3196C60.4485 59.369 60.1336 59.3112 59.8655 59.1563C59.2328 58.7905 59.022 57.9907 59.3947 57.3698L59.6318 56.9734C61.5208 53.8024 63.228 50.6467 64.7535 47.5062C66.555 43.7975 68.2456 39.8166 69.8252 35.5635ZM29.2445 31.8803C29.5515 31.8309 29.8664 31.8887 30.1345 32.0437C30.7672 32.4094 30.978 33.2092 30.6053 33.8301L30.3682 34.2266C28.4792 37.3975 26.772 40.5532 25.2465 43.6937C23.445 47.4024 21.7544 51.3833 20.1748 55.6364C19.9269 56.304 19.1802 56.6541 18.4952 56.4241L18.122 56.2979C5.88138 52.1283 1.23047 47.546 4.16922 42.551C7.04374 37.6651 15.4022 34.1082 29.2445 31.8803ZM49.048 16.9257C58.5727 8.60366 64.7631 6.94139 67.6194 11.9389C70.4131 16.8271 69.4021 25.7133 64.5862 38.5976C64.4794 38.8833 64.2768 39.1222 64.0136 39.2726C63.3924 39.6276 62.604 39.4067 62.2526 38.7792L62.0277 38.3793C60.226 35.187 58.3489 32.1567 56.3966 29.2886C54.091 25.9016 51.4981 22.4728 48.6178 19.0021C48.1657 18.4573 48.2282 17.6473 48.7584 17.1799L49.048 16.9257ZM27.3241 9.12628C32.8691 9.12628 39.9275 14.3799 48.4993 24.8872C48.6894 25.1202 48.7921 25.4128 48.7895 25.714C48.7832 26.4249 48.2041 26.9962 47.4959 26.99L47.0441 26.9868C43.4342 26.9671 39.9248 27.0924 36.516 27.3625C32.4905 27.6815 28.2868 28.2278 23.9049 29.0014C23.2171 29.1228 22.559 28.6695 22.4244 27.9816L22.3518 27.6064C19.9978 15.2863 21.6553 9.12628 27.3241 9.12628Z" fill="#FF4154"/>
</svg>
