<svg width="90" height="81" viewBox="0 0 90 81" fill="none" xmlns="http://www.w3.org/2000/svg">
<path d="M90 40.1109C90 34.1448 82.5336 28.4907 71.0864 24.9844C73.7281 13.3091 72.554 4.02027 67.3808 1.04637C66.1883 0.34879 64.7941 0.0183571 63.2715 0.0183571V4.11206C64.1154 4.11206 64.7941 4.27728 65.3628 4.58935C67.8577 6.02123 68.9401 11.4734 68.0962 18.4859C67.8944 20.2115 67.5642 22.0289 67.1606 23.883C63.565 23.0018 59.6392 22.3226 55.5116 21.882C53.0351 18.4859 50.4668 15.4019 47.8801 12.7033C53.8606 7.14103 59.4741 4.0937 63.2899 4.0937V0C58.245 0 51.6409 3.59805 44.9633 9.83957C38.2858 3.63477 31.6816 0.0734299 26.6368 0.0734299V4.16713C30.4342 4.16713 36.066 7.19611 42.0465 12.7217C39.4782 15.4202 36.9099 18.4859 34.47 21.882C30.3241 22.3226 26.3983 23.0018 22.8027 23.9013C22.3808 22.0656 22.0689 20.2849 21.8488 18.5777C20.9865 11.5652 22.0506 6.11302 24.5271 4.66278C25.0775 4.33235 25.7929 4.18549 26.6368 4.18549V0.091787C25.0958 0.091787 23.7016 0.42222 22.4908 1.1198C17.3359 4.0937 16.1802 13.3642 18.8402 25.0028C7.42968 28.5274 0 34.1631 0 40.1109C0 46.0771 7.46637 51.7312 18.9136 55.2374C16.2719 66.9128 17.446 76.2016 22.6192 79.1755C23.8117 79.8731 25.2059 80.2035 26.7468 80.2035C31.7917 80.2035 38.3958 76.6055 45.0734 70.3639C51.7509 76.5688 58.3551 80.1301 63.3999 80.1301C64.9409 80.1301 66.3351 79.7997 67.5459 79.1021C72.7008 76.1282 73.8565 66.8577 71.1965 55.2191C82.5703 51.7128 90 46.0587 90 40.1109ZM66.115 27.8665C65.4362 30.2347 64.5923 32.6762 63.6384 35.1177C62.8863 33.6491 62.0974 32.1805 61.2352 30.7119C60.3914 29.2434 59.4925 27.8115 58.5936 26.4163C61.1985 26.8018 63.7118 27.2791 66.115 27.8665ZM57.713 47.4172C56.2821 49.8954 54.8145 52.2452 53.2919 54.4297C50.5585 54.6684 47.7884 54.7969 45 54.7969C42.2299 54.7969 39.4599 54.6684 36.7448 54.4481C35.2222 52.2635 33.7362 49.9322 32.3053 47.4723C30.9111 45.0674 29.6453 42.6259 28.4896 40.166C29.627 37.7061 30.9111 35.2462 32.287 32.8414C33.7179 30.3632 35.1855 28.0134 36.7081 25.8289C39.4415 25.5902 42.2116 25.4617 45 25.4617C47.7701 25.4617 50.5402 25.5902 53.2552 25.8105C54.7778 27.9951 56.2638 30.3264 57.6947 32.7863C59.0889 35.1912 60.3547 37.6327 61.5104 40.0926C60.3547 42.5525 59.0889 45.0124 57.713 47.4172ZM63.6384 45.0307C64.629 47.4906 65.4729 49.9505 66.17 52.337C63.7668 52.9244 61.2352 53.4201 58.6119 53.8056C59.5108 52.392 60.4097 50.9418 61.2536 49.4549C62.0974 47.9863 62.8863 46.4993 63.6384 45.0307ZM45.0367 64.6181C43.3306 62.8558 41.6245 60.8915 39.9368 58.7437C41.5879 58.8171 43.2756 58.8722 44.9817 58.8722C46.7061 58.8722 48.4122 58.8355 50.0815 58.7437C48.4305 60.8915 46.7244 62.8558 45.0367 64.6181ZM31.3881 53.8056C28.7831 53.4201 26.2699 52.9428 23.8667 52.3553C24.5455 49.9872 25.3893 47.5457 26.3433 45.1042C27.0954 46.5728 27.8842 48.0413 28.7464 49.5099C29.6086 50.9785 30.4892 52.4104 31.3881 53.8056ZM44.945 15.6038C46.651 17.3661 48.3571 19.3304 50.0448 21.4782C48.3938 21.4047 46.7061 21.3497 45 21.3497C43.2756 21.3497 41.5695 21.3864 39.9001 21.4782C41.5512 19.3304 43.2572 17.3661 44.945 15.6038ZM31.3698 26.4163C30.4709 27.8298 29.572 29.2801 28.7281 30.767C27.8842 32.2356 27.0954 33.7042 26.3433 35.1728C25.3526 32.7129 24.5088 30.253 23.8117 27.8665C26.2148 27.2975 28.7464 26.8018 31.3698 26.4163ZM14.7676 49.3998C8.27355 46.6278 4.07256 42.9931 4.07256 40.1109C4.07256 37.2288 8.27355 33.5757 14.7676 30.8221C16.3453 30.1429 18.0697 29.5371 19.8492 28.968C20.8948 32.566 22.2707 36.311 23.9768 40.1477C22.289 43.966 20.9315 47.6925 19.9042 51.2722C18.0881 50.7032 16.3636 50.079 14.7676 49.3998ZM24.6372 75.6325C22.1423 74.2007 21.0599 68.7485 21.9038 61.736C22.1056 60.0104 22.4358 58.193 22.8394 56.3389C26.435 57.22 30.3608 57.8993 34.4884 58.3398C36.9649 61.736 39.5332 64.82 42.1199 67.5185C36.1394 73.0808 30.5259 76.1282 26.7102 76.1282C25.8846 76.1098 25.1875 75.9446 24.6372 75.6325ZM68.1512 61.6442C69.0135 68.6567 67.9494 74.1089 65.4729 75.5591C64.9225 75.8895 64.2071 76.0364 63.3632 76.0364C59.5658 76.0364 53.934 73.0074 47.9535 67.4818C50.5218 64.7833 53.0901 61.7176 55.53 58.3215C59.6759 57.8809 63.6017 57.2017 67.1973 56.3022C67.6192 58.1563 67.9495 59.9369 68.1512 61.6442ZM75.214 49.3998C73.6364 50.079 71.9119 50.6848 70.1325 51.2539C69.0868 47.6558 67.711 43.9109 66.0049 40.0742C67.6926 36.2559 69.0501 32.5293 70.0775 28.9496C71.8936 29.5187 73.618 30.1429 75.2324 30.8221C81.7265 33.5941 85.9274 37.2288 85.9274 40.1109C85.9091 42.9931 81.7081 46.6462 75.214 49.3998Z" fill="#61DAFB"/>
<path d="M44.9817 48.5003C49.6118 48.5003 53.3653 44.7443 53.3653 40.111C53.3653 35.4777 49.6118 31.7216 44.9817 31.7216C40.3515 31.7216 36.5981 35.4777 36.5981 40.111C36.5981 44.7443 40.3515 48.5003 44.9817 48.5003Z" fill="#61DAFB"/>
</svg>
