<svg width="90" height="90" viewBox="0 0 90 90" fill="none" xmlns="http://www.w3.org/2000/svg">
<g clip-path="url(#clip0_40_606)">
<path d="M0 44.625V0H90V89.25H0" fill="#007ACC"/>
<path d="M19.7327 44.7812V48.4181H31.4327V81.4406H39.7352V48.4181H51.4352V44.8481C51.4352 42.84 51.4352 41.2112 51.3452 41.1666C51.3452 41.0996 44.2127 41.0773 35.5502 41.0773L19.8002 41.1443V44.8035L19.7327 44.7812ZM72.3152 41.055C74.6102 41.5905 76.3652 42.6169 77.9402 44.2457C78.7727 45.1382 80.0102 46.7001 80.1002 47.1017C80.1002 47.2356 76.2077 49.8461 73.8452 51.2965C73.7552 51.3634 73.3952 50.9841 73.0352 50.404C71.8652 48.7528 70.6727 48.0388 68.8052 47.905C66.1052 47.7265 64.3052 49.1321 64.3052 51.475C64.3052 52.189 64.4402 52.5906 64.7102 53.1707C65.3177 54.3979 66.4427 55.1342 69.9302 56.6515C76.3652 59.3959 79.1552 61.2032 80.8427 63.7915C82.7552 66.6921 83.1827 71.2438 81.9002 74.6576C80.4602 78.3838 76.9502 80.9051 71.9327 81.7307C70.3577 81.9985 66.7577 81.9538 65.0702 81.6638C61.4702 80.9944 58.0277 79.2094 55.9127 76.9112C55.0802 76.0187 53.4827 73.6313 53.5727 73.4751L54.4277 72.9396L57.8027 70.9984L60.3452 69.5258L60.9302 70.3067C61.6727 71.467 63.3377 73.0288 64.3052 73.5643C67.2302 75.0593 71.1452 74.8585 73.0802 73.1181C73.9127 72.3595 74.2727 71.5562 74.2727 70.4406C74.2727 69.4142 74.1152 68.9456 73.5977 68.1647C72.8777 67.183 71.4377 66.3797 67.3877 64.5947C62.7302 62.6312 60.7502 61.3817 58.9052 59.4628C57.8477 58.3026 56.8802 56.4953 56.4302 55.0003C56.0927 53.7062 55.9802 50.5378 56.2952 49.266C57.2627 44.8035 60.6602 41.6798 65.5202 40.7873C67.0952 40.4749 70.8077 40.6088 72.3602 41.0104L72.3152 41.055Z" fill="white"/>
</g>
<defs>
<clipPath id="clip0_40_606">
<rect width="90" height="89.25" fill="white"/>
</clipPath>
</defs>
</svg>
